# xmcd
#
# Track frame offsets: 
#        150
#        6201
#        17161
#        31664
#        39382
#        49726
#        64374
#        75842
#        76908
#        86175
#        97413
#        107964
#        118905
#        138347
#        148539
#        159336
#        170116
#
# Disc length: 2322 seconds
#
# Revision: 0
# Processed by: cddbd v1.5.2PL0 Copyright (c) Steve Scherf et al.
# Submitted via: ExactAudioCopy v0.99pb5
#
DISCID=e0091011
DTITLE=Exit 56 - She Kat
DYEAR=2000
DGENRE=Rock and Roll
TTITLE0=She Cat
TTITLE1=Call Her Up
TTITLE2=I Used to Love You
TTITLE3=Five Five Nomad
TTITLE4=Mad Rock Fever 
TTITLE5=Rip It Up
TTITLE6=Rock Rock Rock
TTITLE7=Hot Blooded Mama
TTITLE8=Drink Up
TTITLE9=A-Bone Coupe
TTITLE10=Operator 
TTITLE11=I Love You Honey 
TTITLE12=Right Behind You Baby
TTITLE13=Nit Wit
TTITLE14=Untitled Track
TTITLE15=Untitled Track
TTITLE16=Untitled Track
EXTD=
EXTT0=
EXTT1=
EXTT2=
EXTT3=
EXTT4=
EXTT5=
EXTT6=
EXTT7=
EXTT8=
EXTT9=
EXTT10=
EXTT11=
EXTT12=
EXTT13=
EXTT14=
EXTT15=
EXTT16=
PLAYORDER=
